<mxfile host="app.diagrams.net" agent="Mozilla/5.0 (Windows NT 10.0; Win64; x64) AppleWebKit/537.36 (KHTML, like Gecko) Chrome/134.0.0.0 Safari/537.36" version="26.1.3">
  <diagram name="Trang-1" id="zOjM11FqY31gruz-tnVd">
    <mxGraphModel dx="1050" dy="522" grid="1" gridSize="10" guides="1" tooltips="1" connect="1" arrows="1" fold="1" page="1" pageScale="1" pageWidth="827" pageHeight="1169" math="0" shadow="0">
      <root>
        <mxCell id="0" />
        <mxCell id="1" parent="0" />
        <mxCell id="Z7QoO1elIAS8lSmZZ-nj-12" style="edgeStyle=orthogonalEdgeStyle;rounded=0;orthogonalLoop=1;jettySize=auto;html=1;entryX=0.5;entryY=0;entryDx=0;entryDy=0;" edge="1" parent="1">
          <mxGeometry relative="1" as="geometry">
            <mxPoint x="396" y="360" as="sourcePoint" />
            <mxPoint x="396" y="410" as="targetPoint" />
          </mxGeometry>
        </mxCell>
        <mxCell id="Z7QoO1elIAS8lSmZZ-nj-22" value="D6" style="edgeLabel;html=1;align=center;verticalAlign=middle;resizable=0;points=[];" vertex="1" connectable="0" parent="Z7QoO1elIAS8lSmZZ-nj-12">
          <mxGeometry x="-0.11" relative="1" as="geometry">
            <mxPoint as="offset" />
          </mxGeometry>
        </mxCell>
        <mxCell id="Z7QoO1elIAS8lSmZZ-nj-14" value="" style="edgeStyle=orthogonalEdgeStyle;rounded=0;orthogonalLoop=1;jettySize=auto;html=1;" edge="1" parent="1" source="Z7QoO1elIAS8lSmZZ-nj-1" target="Z7QoO1elIAS8lSmZZ-nj-3">
          <mxGeometry relative="1" as="geometry" />
        </mxCell>
        <mxCell id="Z7QoO1elIAS8lSmZZ-nj-26" value="D8" style="edgeLabel;html=1;align=center;verticalAlign=middle;resizable=0;points=[];" vertex="1" connectable="0" parent="Z7QoO1elIAS8lSmZZ-nj-14">
          <mxGeometry x="-0.2036" relative="1" as="geometry">
            <mxPoint as="offset" />
          </mxGeometry>
        </mxCell>
        <mxCell id="Z7QoO1elIAS8lSmZZ-nj-1" value="Xem thông tin khách hàng" style="ellipse;whiteSpace=wrap;html=1;" vertex="1" parent="1">
          <mxGeometry x="350" y="280" width="160" height="80" as="geometry" />
        </mxCell>
        <mxCell id="Z7QoO1elIAS8lSmZZ-nj-13" style="edgeStyle=orthogonalEdgeStyle;rounded=0;orthogonalLoop=1;jettySize=auto;html=1;entryX=0;entryY=0.5;entryDx=0;entryDy=0;" edge="1" parent="1" source="Z7QoO1elIAS8lSmZZ-nj-2" target="Z7QoO1elIAS8lSmZZ-nj-1">
          <mxGeometry relative="1" as="geometry" />
        </mxCell>
        <mxCell id="Z7QoO1elIAS8lSmZZ-nj-21" value="D5" style="edgeLabel;html=1;align=center;verticalAlign=middle;resizable=0;points=[];" vertex="1" connectable="0" parent="Z7QoO1elIAS8lSmZZ-nj-13">
          <mxGeometry x="-0.164" relative="1" as="geometry">
            <mxPoint as="offset" />
          </mxGeometry>
        </mxCell>
        <mxCell id="Z7QoO1elIAS8lSmZZ-nj-2" value="Thiết bị nhập" style="rounded=0;whiteSpace=wrap;html=1;" vertex="1" parent="1">
          <mxGeometry x="130" y="290" width="120" height="60" as="geometry" />
        </mxCell>
        <mxCell id="Z7QoO1elIAS8lSmZZ-nj-3" value="Thiết bị xuất" style="rounded=0;whiteSpace=wrap;html=1;" vertex="1" parent="1">
          <mxGeometry x="620" y="290" width="120" height="60" as="geometry" />
        </mxCell>
        <mxCell id="Z7QoO1elIAS8lSmZZ-nj-9" style="edgeStyle=orthogonalEdgeStyle;rounded=0;orthogonalLoop=1;jettySize=auto;html=1;entryX=0;entryY=0.5;entryDx=0;entryDy=0;" edge="1" parent="1" source="Z7QoO1elIAS8lSmZZ-nj-5" target="Z7QoO1elIAS8lSmZZ-nj-7">
          <mxGeometry relative="1" as="geometry" />
        </mxCell>
        <mxCell id="Z7QoO1elIAS8lSmZZ-nj-16" value="D1" style="edgeLabel;html=1;align=center;verticalAlign=middle;resizable=0;points=[];" vertex="1" connectable="0" parent="Z7QoO1elIAS8lSmZZ-nj-9">
          <mxGeometry x="0.0277" y="1" relative="1" as="geometry">
            <mxPoint as="offset" />
          </mxGeometry>
        </mxCell>
        <mxCell id="Z7QoO1elIAS8lSmZZ-nj-5" value="Admin/Nhân viên" style="rounded=0;whiteSpace=wrap;html=1;" vertex="1" parent="1">
          <mxGeometry x="120" y="170" width="120" height="60" as="geometry" />
        </mxCell>
        <mxCell id="Z7QoO1elIAS8lSmZZ-nj-24" value="" style="edgeStyle=orthogonalEdgeStyle;rounded=0;orthogonalLoop=1;jettySize=auto;html=1;" edge="1" parent="1">
          <mxGeometry relative="1" as="geometry">
            <mxPoint x="459" y="411" as="sourcePoint" />
            <mxPoint x="459" y="361" as="targetPoint" />
          </mxGeometry>
        </mxCell>
        <mxCell id="Z7QoO1elIAS8lSmZZ-nj-25" value="D7" style="edgeLabel;html=1;align=center;verticalAlign=middle;resizable=0;points=[];" vertex="1" connectable="0" parent="Z7QoO1elIAS8lSmZZ-nj-24">
          <mxGeometry x="0.088" relative="1" as="geometry">
            <mxPoint as="offset" />
          </mxGeometry>
        </mxCell>
        <mxCell id="Z7QoO1elIAS8lSmZZ-nj-6" value="Database" style="shape=partialRectangle;whiteSpace=wrap;html=1;left=0;right=0;fillColor=none;" vertex="1" parent="1">
          <mxGeometry x="370" y="410" width="120" height="60" as="geometry" />
        </mxCell>
        <mxCell id="Z7QoO1elIAS8lSmZZ-nj-10" style="edgeStyle=orthogonalEdgeStyle;rounded=0;orthogonalLoop=1;jettySize=auto;html=1;entryX=0.5;entryY=1;entryDx=0;entryDy=0;" edge="1" parent="1" source="Z7QoO1elIAS8lSmZZ-nj-7" target="Z7QoO1elIAS8lSmZZ-nj-8">
          <mxGeometry relative="1" as="geometry" />
        </mxCell>
        <mxCell id="Z7QoO1elIAS8lSmZZ-nj-17" value="D2" style="edgeLabel;html=1;align=center;verticalAlign=middle;resizable=0;points=[];" vertex="1" connectable="0" parent="Z7QoO1elIAS8lSmZZ-nj-10">
          <mxGeometry x="0.2062" y="-2" relative="1" as="geometry">
            <mxPoint as="offset" />
          </mxGeometry>
        </mxCell>
        <mxCell id="Z7QoO1elIAS8lSmZZ-nj-15" value="" style="edgeStyle=orthogonalEdgeStyle;rounded=0;orthogonalLoop=1;jettySize=auto;html=1;" edge="1" parent="1" source="Z7QoO1elIAS8lSmZZ-nj-7" target="Z7QoO1elIAS8lSmZZ-nj-1">
          <mxGeometry relative="1" as="geometry" />
        </mxCell>
        <mxCell id="Z7QoO1elIAS8lSmZZ-nj-20" value="D4" style="edgeLabel;html=1;align=center;verticalAlign=middle;resizable=0;points=[];" vertex="1" connectable="0" parent="Z7QoO1elIAS8lSmZZ-nj-15">
          <mxGeometry x="-0.12" y="-4" relative="1" as="geometry">
            <mxPoint as="offset" />
          </mxGeometry>
        </mxCell>
        <mxCell id="Z7QoO1elIAS8lSmZZ-nj-7" value="Kiểm tra thông tin KH trong Database" style="ellipse;whiteSpace=wrap;html=1;" vertex="1" parent="1">
          <mxGeometry x="370" y="165" width="180" height="70" as="geometry" />
        </mxCell>
        <mxCell id="Z7QoO1elIAS8lSmZZ-nj-11" style="edgeStyle=orthogonalEdgeStyle;rounded=0;orthogonalLoop=1;jettySize=auto;html=1;entryX=0.5;entryY=0;entryDx=0;entryDy=0;" edge="1" parent="1" source="Z7QoO1elIAS8lSmZZ-nj-8" target="Z7QoO1elIAS8lSmZZ-nj-5">
          <mxGeometry relative="1" as="geometry" />
        </mxCell>
        <mxCell id="Z7QoO1elIAS8lSmZZ-nj-18" value="D3" style="edgeLabel;html=1;align=center;verticalAlign=middle;resizable=0;points=[];" vertex="1" connectable="0" parent="Z7QoO1elIAS8lSmZZ-nj-11">
          <mxGeometry x="-0.3367" y="-2" relative="1" as="geometry">
            <mxPoint as="offset" />
          </mxGeometry>
        </mxCell>
        <mxCell id="Z7QoO1elIAS8lSmZZ-nj-8" value="Khách hàng không tồn tại&amp;nbsp;" style="ellipse;whiteSpace=wrap;html=1;" vertex="1" parent="1">
          <mxGeometry x="380" y="20" width="160" height="70" as="geometry" />
        </mxCell>
      </root>
    </mxGraphModel>
  </diagram>
</mxfile>
